<?xml version="1.0" encoding="UTF-8" standalone="no"?>
<!DOCTYPE svg PUBLIC "-//W3C//DTD SVG 1.1//EN" "http://www.w3.org/Graphics/SVG/1.1/DTD/svg11.dtd">
<svg version="1.1" xmlns="http://www.w3.org/2000/svg" xmlns:xlink="http://www.w3.org/1999/xlink" preserveAspectRatio="xMidYMid meet" viewBox="0 0 688 688" width="688" height="688"><defs><path d="M633.76 327.87C633.76 480.89 500.07 605.12 335.4 605.12C170.74 605.12 37.05 480.89 37.05 327.87C37.05 174.85 170.74 50.62 335.4 50.62C500.07 50.62 633.76 174.85 633.76 327.87Z" id="di18yPh1s"></path><path d="M14.25 241.1C3.86 275.2 0 302.64 0 341C0 406.4 15.45 462.75 48.35 517.49C102.17 607.01 194.74 667.08 298.38 680C319.95 682.67 362.05 682.67 383.63 680C516.96 663.48 628.99 569.31 667.75 440.9C678.14 406.8 682 379.36 682 341C682 275.6 666.55 219.25 633.65 164.51C579.83 74.99 487.26 14.92 383.63 2C363.24 -0.53 316.89 -0.4 297.04 2.13C164.37 19.05 52.88 113.36 14.25 241.1ZM259.48 193.28C288.25 200.87 317.69 213.66 334.07 225.78C334.58 226.14 337.11 227.96 341.67 231.24C345.66 228.2 347.88 226.52 348.33 226.18C357.12 219.52 380.03 207.8 395.61 202.07C417.19 194.08 446.76 186.88 473.94 183.02C493.25 180.36 532.41 177.16 546.4 177.16C547.18 177.16 551.09 177.16 558.12 177.16L558.12 340.2L558.12 503.11C541.58 503.59 532.39 503.85 530.55 503.91C455.55 506.04 390.55 522.56 351.92 549.2C351.23 549.67 347.77 552.02 341.53 556.26C336.18 552.5 333.2 550.41 332.61 550C294.51 523.22 227.64 506.04 152.92 503.91C151.07 503.85 141.83 503.59 125.21 503.11L125.21 340.07L125.21 177.16C132.64 177.16 136.77 177.16 137.6 177.16C144.26 177.16 160.11 178.09 172.5 179.16C210.19 182.49 232.04 186.08 259.48 193.28Z" id="b7QRqvEClA"></path><path d="M179.82 450.23C182.46 450.23 183.93 450.23 184.22 450.23C191.55 450.23 224.98 455.42 241.76 459.02C260.94 463.15 288.65 472.07 302.9 478.73C308.76 481.4 313.56 483.53 313.83 483.53C314.09 483.53 314.36 434.64 314.36 374.97C314.36 367.72 314.36 331.49 314.36 266.27C308.21 263.48 304.79 261.92 304.1 261.61C275.2 248.29 232.71 237.77 190.88 233.37C190.14 233.3 186.46 232.95 179.82 232.31L179.82 341.27L179.82 450.23Z" id="b2r6nUeRu9"></path><path d="M379.1 261.61C378.42 261.92 375.05 263.48 368.97 266.27C368.97 331.41 368.97 367.6 368.97 374.83C368.97 434.64 369.24 483.53 369.51 483.53C369.77 483.53 374.97 481.26 381.09 478.33C409.33 465.28 453.96 454.36 493.92 450.76C494.56 450.7 497.75 450.39 503.51 449.83C503.51 384.45 503.51 348.13 503.51 340.87C503.51 280.79 503.37 231.77 503.24 231.91C502.98 232.04 495.65 232.84 486.86 233.9C446.1 238.7 407.87 248.56 379.1 261.61Z" id="donXmXAAz"></path></defs><g><g><g><use xlink:href="#di18yPh1s" opacity="1" fill="#ffffff" fill-opacity="1"></use></g><g><use xlink:href="#b7QRqvEClA" opacity="1" fill="#000000" fill-opacity="1"></use><g><use xlink:href="#b7QRqvEClA" opacity="1" fill-opacity="0" stroke="#000000" stroke-width="1" stroke-opacity="0"></use></g></g><g><use xlink:href="#b2r6nUeRu9" opacity="1" fill="#000000" fill-opacity="1"></use><g><use xlink:href="#b2r6nUeRu9" opacity="1" fill-opacity="0" stroke="#000000" stroke-width="1" stroke-opacity="0"></use></g></g><g><use xlink:href="#donXmXAAz" opacity="1" fill="#000000" fill-opacity="1"></use><g><use xlink:href="#donXmXAAz" opacity="1" fill-opacity="0" stroke="#000000" stroke-width="1" stroke-opacity="0"></use></g></g></g></g></svg>